<svg width="411" height="82" viewBox="0 0 411 82" fill="none" xmlns="http://www.w3.org/2000/svg">
<path d="M0.719727 28.1201C0.719727 22.6161 1.74373 17.7841 3.79173 13.6241C5.90373 9.46406 8.75173 6.26406 12.3357 4.02407C15.9197 1.78406 19.9197 0.664062 24.3357 0.664062C28.1117 0.664062 31.4077 1.43206 34.2237 2.96806C37.1037 4.50406 39.3117 6.52007 40.8477 9.01606V1.43206H57.2637V55.0001H40.8477V47.4161C39.2477 49.9121 37.0077 51.9281 34.1277 53.4641C31.3117 55.0001 28.0157 55.7681 24.2397 55.7681C19.8877 55.7681 15.9197 54.6481 12.3357 52.4081C8.75173 50.1041 5.90373 46.8721 3.79173 42.7121C1.74373 38.4881 0.719727 33.6241 0.719727 28.1201ZM40.8477 28.2161C40.8477 24.1201 39.6957 20.8881 37.3917 18.5201C35.1517 16.1521 32.3997 14.9681 29.1357 14.9681C25.8717 14.9681 23.0877 16.1521 20.7837 18.5201C18.5437 20.8241 17.4237 24.0241 17.4237 28.1201C17.4237 32.2161 18.5437 35.4801 20.7837 37.9121C23.0877 40.2801 25.8717 41.4641 29.1357 41.4641C32.3997 41.4641 35.1517 40.2801 37.3917 37.9121C39.6957 35.5441 40.8477 32.3121 40.8477 28.2161Z" fill="black"/>
<path d="M101.78 0.856066C108.052 0.856066 113.044 2.90407 116.756 7.00007C120.532 11.0321 122.42 16.6001 122.42 23.7041V55.0001H106.1V25.9121C106.1 22.3281 105.172 19.5441 103.316 17.5601C101.46 15.5761 98.964 14.5841 95.828 14.5841C92.692 14.5841 90.196 15.5761 88.34 17.5601C86.484 19.5441 85.556 22.3281 85.556 25.9121V55.0001H69.14V1.43206H85.556V8.53606C87.22 6.16806 89.46 4.31206 92.276 2.96806C95.092 1.56006 98.26 0.856066 101.78 0.856066Z" fill="black"/>
<path d="M188.547 1.43206L154.947 80.4401H137.283L149.571 53.1761L127.779 1.43206H146.115L158.499 34.9361L170.787 1.43206H188.547Z" fill="black"/>
<path d="M214.836 0.664062C218.612 0.664062 221.908 1.43206 224.724 2.96806C227.604 4.50406 229.812 6.52007 231.348 9.01606V1.43206H247.764V54.9041C247.764 59.8321 246.772 64.2801 244.788 68.2481C242.868 72.2801 239.892 75.4801 235.86 77.8481C231.892 80.2161 226.932 81.4001 220.98 81.4001C213.044 81.4001 206.612 79.5121 201.684 75.7361C196.756 72.0241 193.94 66.9681 193.236 60.5681H209.46C209.972 62.6161 211.188 64.2161 213.108 65.3681C215.028 66.5841 217.396 67.1921 220.212 67.1921C223.604 67.1921 226.292 66.2001 228.276 64.2161C230.324 62.2961 231.348 59.1921 231.348 54.9041V47.3201C229.748 49.8161 227.54 51.8641 224.724 53.4641C221.908 55.0001 218.612 55.7681 214.836 55.7681C210.42 55.7681 206.42 54.6481 202.836 52.4081C199.252 50.1041 196.404 46.8721 194.292 42.7121C192.244 38.4881 191.22 33.6241 191.22 28.1201C191.22 22.6161 192.244 17.7841 194.292 13.6241C196.404 9.46406 199.252 6.26406 202.836 4.02407C206.42 1.78406 210.42 0.664062 214.836 0.664062ZM231.348 28.2161C231.348 24.1201 230.196 20.8881 227.892 18.5201C225.652 16.1521 222.9 14.9681 219.636 14.9681C216.372 14.9681 213.588 16.1521 211.284 18.5201C209.044 20.8241 207.924 24.0241 207.924 28.1201C207.924 32.2161 209.044 35.4801 211.284 37.9121C213.588 40.2801 216.372 41.4641 219.636 41.4641C222.9 41.4641 225.652 40.2801 227.892 37.9121C230.196 35.5441 231.348 32.3121 231.348 28.2161Z" fill="black"/>
<path d="M314.36 1.43206L280.76 80.4401H263.096L275.384 53.1761L253.592 1.43206H271.928L284.312 34.9361L296.6 1.43206H314.36Z" fill="black"/>
<path d="M388.648 0.856066C395.304 0.856066 400.584 2.87206 404.488 6.90406C408.456 10.9361 410.44 16.5361 410.44 23.7041V55.0001H394.12V25.9121C394.12 22.4561 393.192 19.8001 391.336 17.9441C389.544 16.0241 387.048 15.0641 383.848 15.0641C380.648 15.0641 378.12 16.0241 376.264 17.9441C374.472 19.8001 373.576 22.4561 373.576 25.9121V55.0001H357.256V25.9121C357.256 22.4561 356.328 19.8001 354.472 17.9441C352.68 16.0241 350.184 15.0641 346.984 15.0641C343.784 15.0641 341.256 16.0241 339.4 17.9441C337.608 19.8001 336.712 22.4561 336.712 25.9121V55.0001H320.296V1.43206H336.712V8.15206C338.376 5.91207 340.552 4.15207 343.24 2.87206C345.928 1.52806 348.968 0.856066 352.36 0.856066C356.392 0.856066 359.976 1.72007 363.112 3.44807C366.312 5.17606 368.808 7.64006 370.6 10.8401C372.456 7.89606 374.984 5.49606 378.184 3.64006C381.384 1.78407 384.872 0.856066 388.648 0.856066Z" fill="black"/>
</svg>
