<svg width="410" height="81" viewBox="0 0 410 81" fill="none" xmlns="http://www.w3.org/2000/svg">
<path d="M0 27.456C0 21.952 1.024 17.12 3.072 12.96C5.184 8.8 8.032 5.6 11.616 3.36C15.2 1.12 19.2 0 23.616 0C27.392 0 30.688 0.768 33.504 2.304C36.384 3.84 38.592 5.856 40.128 8.352V0.768002H56.544V54.336H40.128V46.752C38.528 49.248 36.288 51.264 33.408 52.8C30.592 54.336 27.296 55.104 23.52 55.104C19.168 55.104 15.2 53.984 11.616 51.744C8.032 49.44 5.184 46.208 3.072 42.048C1.024 37.824 0 32.96 0 27.456ZM40.128 27.552C40.128 23.456 38.976 20.224 36.672 17.856C34.432 15.488 31.68 14.304 28.416 14.304C25.152 14.304 22.368 15.488 20.064 17.856C17.824 20.16 16.704 23.36 16.704 27.456C16.704 31.552 17.824 34.816 20.064 37.248C22.368 39.616 25.152 40.8 28.416 40.8C31.68 40.8 34.432 39.616 36.672 37.248C38.976 34.88 40.128 31.648 40.128 27.552Z" fill="url(#paint0_linear_1402_123)"/>
<path d="M101.06 0.192003C107.332 0.192003 112.324 2.24 116.036 6.336C119.812 10.368 121.7 15.936 121.7 23.04V54.336H105.38V25.248C105.38 21.664 104.452 18.88 102.596 16.896C100.74 14.912 98.2443 13.92 95.1083 13.92C91.9723 13.92 89.4763 14.912 87.6203 16.896C85.7643 18.88 84.8363 21.664 84.8363 25.248V54.336H68.4202V0.768002H84.8363V7.872C86.5002 5.504 88.7403 3.648 91.5563 2.304C94.3723 0.896002 97.5402 0.192003 101.06 0.192003Z" fill="url(#paint1_linear_1402_123)"/>
<path d="M187.828 0.768002L154.228 79.776H136.564L148.852 52.512L127.06 0.768002H145.396L157.78 34.272L170.068 0.768002H187.828Z" fill="url(#paint2_linear_1402_123)"/>
<path d="M214.116 0C217.892 0 221.188 0.768 224.004 2.304C226.884 3.84 229.092 5.856 230.628 8.352V0.768002H247.044V54.24C247.044 59.168 246.052 63.616 244.068 67.584C242.148 71.616 239.172 74.816 235.14 77.184C231.172 79.552 226.212 80.736 220.26 80.736C212.324 80.736 205.892 78.848 200.964 75.072C196.036 71.36 193.22 66.304 192.516 59.904H208.74C209.252 61.952 210.468 63.552 212.388 64.704C214.308 65.92 216.676 66.528 219.492 66.528C222.884 66.528 225.572 65.536 227.556 63.552C229.604 61.632 230.628 58.528 230.628 54.24V46.656C229.028 49.152 226.82 51.2 224.004 52.8C221.188 54.336 217.892 55.104 214.116 55.104C209.7 55.104 205.7 53.984 202.116 51.744C198.532 49.44 195.684 46.208 193.572 42.048C191.524 37.824 190.5 32.96 190.5 27.456C190.5 21.952 191.524 17.12 193.572 12.96C195.684 8.8 198.532 5.6 202.116 3.36C205.7 1.12 209.7 0 214.116 0ZM230.628 27.552C230.628 23.456 229.476 20.224 227.172 17.856C224.932 15.488 222.18 14.304 218.916 14.304C215.652 14.304 212.868 15.488 210.564 17.856C208.324 20.16 207.204 23.36 207.204 27.456C207.204 31.552 208.324 34.816 210.564 37.248C212.868 39.616 215.652 40.8 218.916 40.8C222.18 40.8 224.932 39.616 227.172 37.248C229.476 34.88 230.628 31.648 230.628 27.552Z" fill="url(#paint3_linear_1402_123)"/>
<path d="M313.64 0.768002L280.04 79.776H262.376L274.664 52.512L252.872 0.768002H271.208L283.592 34.272L295.88 0.768002H313.64Z" fill="url(#paint4_linear_1402_123)"/>
<path d="M387.928 0.192003C394.584 0.192003 399.864 2.208 403.768 6.24C407.736 10.272 409.72 15.872 409.72 23.04V54.336H393.401V25.248C393.401 21.792 392.473 19.136 390.617 17.28C388.825 15.36 386.329 14.4 383.129 14.4C379.929 14.4 377.4 15.36 375.544 17.28C373.752 19.136 372.857 21.792 372.857 25.248V54.336H356.536V25.248C356.536 21.792 355.609 19.136 353.753 17.28C351.961 15.36 349.464 14.4 346.264 14.4C343.064 14.4 340.537 15.36 338.681 17.28C336.889 19.136 335.992 21.792 335.992 25.248V54.336H319.577V0.768002H335.992V7.488C337.656 5.248 339.833 3.488 342.521 2.208C345.209 0.864002 348.249 0.192003 351.641 0.192003C355.673 0.192003 359.256 1.056 362.392 2.784C365.592 4.512 368.088 6.976 369.88 10.176C371.736 7.232 374.265 4.832 377.465 2.976C380.665 1.12 384.152 0.192003 387.928 0.192003Z" fill="url(#paint5_linear_1402_123)"/>
<defs>
<linearGradient id="paint0_linear_1402_123" x1="163.964" y1="80.736" x2="245.756" y2="-3.96684e-06" gradientUnits="userSpaceOnUse">
<stop stop-color="#FFD700"/>
<stop offset="1" stop-color="#FF6B6B"/>
</linearGradient>
<linearGradient id="paint1_linear_1402_123" x1="163.964" y1="80.736" x2="245.756" y2="-3.96684e-06" gradientUnits="userSpaceOnUse">
<stop stop-color="#FFD700"/>
<stop offset="1" stop-color="#FF6B6B"/>
</linearGradient>
<linearGradient id="paint2_linear_1402_123" x1="163.964" y1="80.736" x2="245.756" y2="-3.96684e-06" gradientUnits="userSpaceOnUse">
<stop stop-color="#FFD700"/>
<stop offset="1" stop-color="#FF6B6B"/>
</linearGradient>
<linearGradient id="paint3_linear_1402_123" x1="163.964" y1="80.736" x2="245.756" y2="-3.96684e-06" gradientUnits="userSpaceOnUse">
<stop stop-color="#FFD700"/>
<stop offset="1" stop-color="#FF6B6B"/>
</linearGradient>
<linearGradient id="paint4_linear_1402_123" x1="163.964" y1="80.736" x2="245.756" y2="-3.96684e-06" gradientUnits="userSpaceOnUse">
<stop stop-color="#FFD700"/>
<stop offset="1" stop-color="#FF6B6B"/>
</linearGradient>
<linearGradient id="paint5_linear_1402_123" x1="163.964" y1="80.736" x2="245.756" y2="-3.96684e-06" gradientUnits="userSpaceOnUse">
<stop stop-color="#FFD700"/>
<stop offset="1" stop-color="#FF6B6B"/>
</linearGradient>
</defs>
</svg>
