<svg width="418" height="144" viewBox="0 0 418 144" fill="none" xmlns="http://www.w3.org/2000/svg">
<path d="M2.71973 79.1201C2.71973 73.6161 3.74373 68.7841 5.79173 64.6241C7.90373 60.4641 10.7517 57.2641 14.3357 55.0241C17.9197 52.7841 21.9197 51.6641 26.3357 51.6641C30.1117 51.6641 33.4077 52.4321 36.2237 53.9681C39.1037 55.5041 41.3117 57.5201 42.8477 60.0161V52.4321H59.2637V106H42.8477V98.4161C41.2477 100.912 39.0077 102.928 36.1277 104.464C33.3117 106 30.0157 106.768 26.2397 106.768C21.8877 106.768 17.9197 105.648 14.3357 103.408C10.7517 101.104 7.90373 97.8721 5.79173 93.7121C3.74373 89.4881 2.71973 84.6241 2.71973 79.1201ZM42.8477 79.2161C42.8477 75.1201 41.6957 71.8881 39.3917 69.5201C37.1517 67.1521 34.3997 65.9681 31.1357 65.9681C27.8717 65.9681 25.0877 67.1521 22.7837 69.5201C20.5437 71.8241 19.4237 75.0241 19.4237 79.1201C19.4237 83.2161 20.5437 86.4801 22.7837 88.9121C25.0877 91.2801 27.8717 92.4641 31.1357 92.4641C34.3997 92.4641 37.1517 91.2801 39.3917 88.9121C41.6957 86.5441 42.8477 83.3121 42.8477 79.2161Z" fill="white"/>
<path d="M103.78 51.8561C110.052 51.8561 115.044 53.9041 118.756 58.0001C122.532 62.0321 124.42 67.6001 124.42 74.7041V106H108.1V76.9121C108.1 73.3281 107.172 70.5441 105.316 68.5601C103.46 66.5761 100.964 65.5841 97.828 65.5841C94.692 65.5841 92.196 66.5761 90.34 68.5601C88.484 70.5441 87.556 73.3281 87.556 76.9121V106H71.14V52.4321H87.556V59.5361C89.22 57.1681 91.46 55.3121 94.276 53.9681C97.092 52.5601 100.26 51.8561 103.78 51.8561Z" fill="white"/>
<path d="M190.547 52.4321L156.947 131.44H139.283L151.571 104.176L129.779 52.4321H148.115L160.499 85.9361L172.787 52.4321H190.547Z" fill="white"/>
<path d="M216.836 51.6641C220.612 51.6641 223.908 52.4321 226.724 53.9681C229.604 55.5041 231.812 57.5201 233.348 60.0161V52.4321H249.764V105.904C249.764 110.832 248.772 115.28 246.788 119.248C244.868 123.28 241.892 126.48 237.86 128.848C233.892 131.216 228.932 132.4 222.98 132.4C215.044 132.4 208.612 130.512 203.684 126.736C198.756 123.024 195.94 117.968 195.236 111.568H211.46C211.972 113.616 213.188 115.216 215.108 116.368C217.028 117.584 219.396 118.192 222.212 118.192C225.604 118.192 228.292 117.2 230.276 115.216C232.324 113.296 233.348 110.192 233.348 105.904V98.3201C231.748 100.816 229.54 102.864 226.724 104.464C223.908 106 220.612 106.768 216.836 106.768C212.42 106.768 208.42 105.648 204.836 103.408C201.252 101.104 198.404 97.8721 196.292 93.7121C194.244 89.4881 193.22 84.6241 193.22 79.1201C193.22 73.6161 194.244 68.7841 196.292 64.6241C198.404 60.4641 201.252 57.2641 204.836 55.0241C208.42 52.7841 212.42 51.6641 216.836 51.6641ZM233.348 79.2161C233.348 75.1201 232.196 71.8881 229.892 69.5201C227.652 67.1521 224.9 65.9681 221.636 65.9681C218.372 65.9681 215.588 67.1521 213.284 69.5201C211.044 71.8241 209.924 75.0241 209.924 79.1201C209.924 83.2161 211.044 86.4801 213.284 88.9121C215.588 91.2801 218.372 92.4641 221.636 92.4641C224.9 92.4641 227.652 91.2801 229.892 88.9121C232.196 86.5441 233.348 83.3121 233.348 79.2161Z" fill="white"/>
<path d="M316.36 52.4321L282.76 131.44H265.096L277.384 104.176L255.592 52.4321H273.928L286.312 85.9361L298.6 52.4321H316.36Z" fill="white"/>
<path d="M390.648 51.8561C397.304 51.8561 402.584 53.8721 406.488 57.9041C410.456 61.9361 412.44 67.5361 412.44 74.7041V106H396.12V76.9121C396.12 73.4561 395.192 70.8001 393.336 68.9441C391.544 67.0241 389.048 66.0641 385.848 66.0641C382.648 66.0641 380.12 67.0241 378.264 68.9441C376.472 70.8001 375.576 73.4561 375.576 76.9121V106H359.256V76.9121C359.256 73.4561 358.328 70.8001 356.472 68.9441C354.68 67.0241 352.184 66.0641 348.984 66.0641C345.784 66.0641 343.256 67.0241 341.4 68.9441C339.608 70.8001 338.712 73.4561 338.712 76.9121V106H322.296V52.4321H338.712V59.1521C340.376 56.9121 342.552 55.1521 345.24 53.8721C347.928 52.5281 350.968 51.8561 354.36 51.8561C358.392 51.8561 361.976 52.7201 365.112 54.4481C368.312 56.1761 370.808 58.6401 372.6 61.8401C374.456 58.8961 376.984 56.4961 380.184 54.6401C383.384 52.7841 386.872 51.8561 390.648 51.8561Z" fill="white"/>
</svg>
